<svg width="180" height="181" viewBox="0 0 180 181" fill="none" xmlns="http://www.w3.org/2000/svg">
<path d="M177.379 15.3697C180.886 11.8409 180.872 6.1342 177.346 2.62348C173.821 -0.887249 168.119 -0.872579 164.612 2.65624L89.8066 77.9154L15.3721 3.41307C11.8556 -0.106713 6.15406 -0.106713 2.63748 3.41307C-0.879099 6.93286 -0.879099 12.6396 2.63748 16.1593L77.1047 90.6945L2.62109 165.63C-0.886444 169.159 -0.871781 174.866 2.65383 178.377C6.17943 181.887 11.8809 181.873 15.3884 178.344L89.8394 103.441L164.595 178.265C168.112 181.785 173.813 181.785 177.33 178.265C180.846 174.745 180.846 169.038 177.33 165.519L102.541 90.6617L177.379 15.3697Z" fill="black"/>
</svg>
